<mxfile host="app.diagrams.net" modified="2023-09-12T02:56:48.124Z" agent="Mozilla/5.0 (Windows NT 10.0; Win64; x64) AppleWebKit/537.36 (KHTML, like Gecko) Chrome/117.0.0.0 Safari/537.36" etag="e0Ueo9WWp2ah4S2dNmQQ" version="21.7.4" type="github">
  <diagram name="Page-1" id="e7e014a7-5840-1c2e-5031-d8a46d1fe8dd">
    <mxGraphModel dx="1434" dy="758" grid="1" gridSize="10" guides="1" tooltips="1" connect="1" arrows="1" fold="1" page="1" pageScale="1" pageWidth="1169" pageHeight="826" background="none" math="0" shadow="0">
      <root>
        <mxCell id="0" />
        <mxCell id="1" parent="0" />
        <mxCell id="2" value="KPElog" style="swimlane;whiteSpace=wrap" parent="1" vertex="1">
          <mxGeometry x="40" y="110" width="280" height="720" as="geometry" />
        </mxCell>
        <mxCell id="5" value="" style="ellipse;shape=startState;fillColor=#000000;strokeColor=#ff0000;" parent="2" vertex="1">
          <mxGeometry x="100" y="40" width="30" height="30" as="geometry" />
        </mxCell>
        <mxCell id="6" value="" style="edgeStyle=elbowEdgeStyle;elbow=horizontal;verticalAlign=bottom;endArrow=open;endSize=8;strokeColor=#FF0000;endFill=1;rounded=0;entryX=0.5;entryY=0;entryDx=0;entryDy=0;" parent="2" source="5" target="gfZZSl0cHbaxcPzD2Ns7-41" edge="1">
          <mxGeometry x="100" y="40" as="geometry">
            <mxPoint x="115.5" y="110" as="targetPoint" />
          </mxGeometry>
        </mxCell>
        <mxCell id="gfZZSl0cHbaxcPzD2Ns7-41" value="Send delete request" style="" vertex="1" parent="2">
          <mxGeometry x="60" y="112" width="110" height="50" as="geometry" />
        </mxCell>
        <mxCell id="gfZZSl0cHbaxcPzD2Ns7-80" value="" style="ellipse;html=1;shape=endState;fillColor=#000000;strokeColor=#ff0000;fontFamily=Helvetica;fontSize=11;fontColor=default;" vertex="1" parent="2">
          <mxGeometry x="100" y="600" width="30" height="30" as="geometry" />
        </mxCell>
        <mxCell id="3" value="TestingsController" style="swimlane;whiteSpace=wrap" parent="1" vertex="1">
          <mxGeometry x="320" y="110" width="280" height="720" as="geometry" />
        </mxCell>
        <mxCell id="gfZZSl0cHbaxcPzD2Ns7-50" style="edgeStyle=elbowEdgeStyle;shape=connector;rounded=0;orthogonalLoop=1;jettySize=auto;elbow=horizontal;html=1;exitX=0.5;exitY=1;exitDx=0;exitDy=0;entryX=0.5;entryY=0;entryDx=0;entryDy=0;labelBackgroundColor=default;strokeColor=#FF0000;fontFamily=Helvetica;fontSize=11;fontColor=default;endArrow=open;endFill=1;endSize=8;" edge="1" parent="3" source="15" target="gfZZSl0cHbaxcPzD2Ns7-47">
          <mxGeometry relative="1" as="geometry" />
        </mxCell>
        <mxCell id="15" value="Verify credential" style="" parent="3" vertex="1">
          <mxGeometry x="85.5" y="112" width="110" height="50" as="geometry" />
        </mxCell>
        <mxCell id="gfZZSl0cHbaxcPzD2Ns7-47" value="valid" style="rhombus;whiteSpace=wrap;html=1;fontColor=#000000;fillColor=#ffffc0;strokeColor=#ff0000;fontFamily=Helvetica;fontSize=11;" vertex="1" parent="3">
          <mxGeometry x="100.5" y="212" width="80" height="40" as="geometry" />
        </mxCell>
        <mxCell id="gfZZSl0cHbaxcPzD2Ns7-49" value="no" style="edgeStyle=orthogonalEdgeStyle;html=1;align=left;verticalAlign=top;endArrow=open;endSize=8;strokeColor=#ff0000;rounded=0;labelBackgroundColor=default;fontFamily=Helvetica;fontSize=11;fontColor=default;shape=connector;elbow=horizontal;entryX=0.5;entryY=0;entryDx=0;entryDy=0;" edge="1" source="gfZZSl0cHbaxcPzD2Ns7-47" parent="3" target="gfZZSl0cHbaxcPzD2Ns7-51">
          <mxGeometry x="-1" relative="1" as="geometry">
            <mxPoint x="140.5" y="332" as="targetPoint" />
            <Array as="points" />
          </mxGeometry>
        </mxCell>
        <mxCell id="gfZZSl0cHbaxcPzD2Ns7-77" style="edgeStyle=elbowEdgeStyle;shape=connector;rounded=0;orthogonalLoop=1;jettySize=auto;elbow=horizontal;html=1;labelBackgroundColor=default;strokeColor=#FF0000;fontFamily=Helvetica;fontSize=11;fontColor=default;endArrow=open;endFill=1;endSize=8;" edge="1" parent="3" source="gfZZSl0cHbaxcPzD2Ns7-51" target="gfZZSl0cHbaxcPzD2Ns7-73">
          <mxGeometry relative="1" as="geometry" />
        </mxCell>
        <mxCell id="gfZZSl0cHbaxcPzD2Ns7-51" value="Throw error" style="" vertex="1" parent="3">
          <mxGeometry x="85.5" y="312" width="110" height="50" as="geometry" />
        </mxCell>
        <mxCell id="gfZZSl0cHbaxcPzD2Ns7-73" value="" style="shape=line;html=1;strokeWidth=6;strokeColor=#ff0000;fontFamily=Helvetica;fontSize=11;fontColor=default;" vertex="1" parent="3">
          <mxGeometry x="40" y="540" width="200" height="10" as="geometry" />
        </mxCell>
        <mxCell id="gfZZSl0cHbaxcPzD2Ns7-74" value="" style="edgeStyle=orthogonalEdgeStyle;html=1;verticalAlign=bottom;endArrow=open;endSize=8;strokeColor=#ff0000;rounded=0;labelBackgroundColor=default;fontFamily=Helvetica;fontSize=11;fontColor=default;shape=connector;elbow=horizontal;" edge="1" source="gfZZSl0cHbaxcPzD2Ns7-73" parent="3">
          <mxGeometry relative="1" as="geometry">
            <mxPoint x="140" y="590" as="targetPoint" />
          </mxGeometry>
        </mxCell>
        <mxCell id="gfZZSl0cHbaxcPzD2Ns7-78" value="Response result" style="" vertex="1" parent="3">
          <mxGeometry x="85" y="590" width="110" height="50" as="geometry" />
        </mxCell>
        <mxCell id="4" value="TestingService" style="swimlane;whiteSpace=wrap" parent="1" vertex="1">
          <mxGeometry x="600" y="110" width="280" height="720" as="geometry" />
        </mxCell>
        <mxCell id="gfZZSl0cHbaxcPzD2Ns7-56" style="edgeStyle=elbowEdgeStyle;shape=connector;rounded=0;orthogonalLoop=1;jettySize=auto;elbow=horizontal;html=1;exitX=0.5;exitY=1;exitDx=0;exitDy=0;entryX=0.5;entryY=0;entryDx=0;entryDy=0;labelBackgroundColor=default;strokeColor=#FF0000;fontFamily=Helvetica;fontSize=11;fontColor=default;endArrow=open;endFill=1;endSize=8;" edge="1" parent="4" source="gfZZSl0cHbaxcPzD2Ns7-52" target="gfZZSl0cHbaxcPzD2Ns7-53">
          <mxGeometry relative="1" as="geometry" />
        </mxCell>
        <mxCell id="gfZZSl0cHbaxcPzD2Ns7-52" value="Delete RawTesting record" style="whiteSpace=wrap;" vertex="1" parent="4">
          <mxGeometry x="85" y="207" width="110" height="50" as="geometry" />
        </mxCell>
        <mxCell id="gfZZSl0cHbaxcPzD2Ns7-53" value="success" style="rhombus;whiteSpace=wrap;html=1;fontColor=#000000;fillColor=#ffffc0;strokeColor=#ff0000;fontFamily=Helvetica;fontSize=11;" vertex="1" parent="4">
          <mxGeometry x="100.5" y="303" width="80" height="40" as="geometry" />
        </mxCell>
        <mxCell id="gfZZSl0cHbaxcPzD2Ns7-55" value="no" style="edgeStyle=orthogonalEdgeStyle;html=1;align=left;verticalAlign=top;endArrow=open;endSize=8;strokeColor=#ff0000;rounded=0;labelBackgroundColor=default;fontFamily=Helvetica;fontSize=11;fontColor=default;shape=connector;elbow=horizontal;entryX=0.5;entryY=0;entryDx=0;entryDy=0;" edge="1" source="gfZZSl0cHbaxcPzD2Ns7-53" parent="4" target="gfZZSl0cHbaxcPzD2Ns7-64">
          <mxGeometry x="-1" relative="1" as="geometry">
            <mxPoint x="140.5" y="392" as="targetPoint" />
          </mxGeometry>
        </mxCell>
        <mxCell id="gfZZSl0cHbaxcPzD2Ns7-72" style="edgeStyle=elbowEdgeStyle;shape=connector;rounded=0;orthogonalLoop=1;jettySize=auto;elbow=horizontal;html=1;exitX=0.5;exitY=1;exitDx=0;exitDy=0;labelBackgroundColor=default;strokeColor=#FF0000;fontFamily=Helvetica;fontSize=11;fontColor=default;endArrow=open;endFill=1;endSize=8;" edge="1" parent="4" source="gfZZSl0cHbaxcPzD2Ns7-64" target="gfZZSl0cHbaxcPzD2Ns7-70">
          <mxGeometry relative="1" as="geometry" />
        </mxCell>
        <mxCell id="gfZZSl0cHbaxcPzD2Ns7-64" value="Throw error" style="" vertex="1" parent="4">
          <mxGeometry x="85.5" y="370" width="110" height="50" as="geometry" />
        </mxCell>
        <mxCell id="gfZZSl0cHbaxcPzD2Ns7-69" style="edgeStyle=elbowEdgeStyle;shape=connector;rounded=0;orthogonalLoop=1;jettySize=auto;elbow=horizontal;html=1;labelBackgroundColor=default;strokeColor=#FF0000;fontFamily=Helvetica;fontSize=11;fontColor=default;endArrow=open;endFill=1;endSize=8;" edge="1" parent="4" source="gfZZSl0cHbaxcPzD2Ns7-65" target="gfZZSl0cHbaxcPzD2Ns7-70">
          <mxGeometry relative="1" as="geometry">
            <mxPoint x="250" y="400" as="targetPoint" />
            <Array as="points">
              <mxPoint x="250" y="360" />
            </Array>
          </mxGeometry>
        </mxCell>
        <mxCell id="gfZZSl0cHbaxcPzD2Ns7-65" value="" style="shape=line;html=1;strokeWidth=6;strokeColor=#ff0000;fontFamily=Helvetica;fontSize=11;fontColor=default;flipV=1;direction=south;" vertex="1" parent="4">
          <mxGeometry x="220" y="290" width="10" height="65" as="geometry" />
        </mxCell>
        <mxCell id="gfZZSl0cHbaxcPzD2Ns7-54" value="yes" style="edgeStyle=orthogonalEdgeStyle;html=1;align=left;verticalAlign=bottom;endArrow=open;endSize=8;strokeColor=#ff0000;rounded=0;labelBackgroundColor=default;fontFamily=Helvetica;fontSize=11;fontColor=default;shape=connector;elbow=horizontal;entryX=0.485;entryY=0.8;entryDx=0;entryDy=0;entryPerimeter=0;" edge="1" source="gfZZSl0cHbaxcPzD2Ns7-53" parent="4" target="gfZZSl0cHbaxcPzD2Ns7-65">
          <mxGeometry x="-1" relative="1" as="geometry">
            <mxPoint x="230" y="312" as="targetPoint" />
          </mxGeometry>
        </mxCell>
        <mxCell id="gfZZSl0cHbaxcPzD2Ns7-70" value="" style="shape=line;html=1;strokeWidth=6;strokeColor=#ff0000;fontFamily=Helvetica;fontSize=11;fontColor=default;" vertex="1" parent="4">
          <mxGeometry x="70" y="450" width="200" height="10" as="geometry" />
        </mxCell>
        <mxCell id="gfZZSl0cHbaxcPzD2Ns7-42" style="edgeStyle=orthogonalEdgeStyle;rounded=0;orthogonalLoop=1;jettySize=auto;html=1;exitX=1;exitY=0.5;exitDx=0;exitDy=0;entryX=0;entryY=0.5;entryDx=0;entryDy=0;endArrow=open;verticalAlign=bottom;strokeColor=#FF0000;endSize=8;endFill=1;" edge="1" parent="1" source="gfZZSl0cHbaxcPzD2Ns7-41" target="15">
          <mxGeometry relative="1" as="geometry" />
        </mxCell>
        <mxCell id="gfZZSl0cHbaxcPzD2Ns7-48" value="yes" style="edgeStyle=orthogonalEdgeStyle;html=1;align=left;verticalAlign=bottom;endArrow=open;endSize=8;strokeColor=#ff0000;rounded=0;labelBackgroundColor=default;fontFamily=Helvetica;fontSize=11;fontColor=default;shape=connector;elbow=horizontal;entryX=0;entryY=0.5;entryDx=0;entryDy=0;" edge="1" source="gfZZSl0cHbaxcPzD2Ns7-47" parent="1" target="gfZZSl0cHbaxcPzD2Ns7-52">
          <mxGeometry x="-1" relative="1" as="geometry">
            <mxPoint x="665.5" y="342" as="targetPoint" />
          </mxGeometry>
        </mxCell>
        <mxCell id="gfZZSl0cHbaxcPzD2Ns7-57" value="DuplicateFilterService" style="swimlane;whiteSpace=wrap" vertex="1" parent="1">
          <mxGeometry x="880" y="110" width="280" height="720" as="geometry" />
        </mxCell>
        <mxCell id="gfZZSl0cHbaxcPzD2Ns7-63" value="Delete Testing history record" style="whiteSpace=wrap;" vertex="1" parent="gfZZSl0cHbaxcPzD2Ns7-57">
          <mxGeometry x="80" y="280" width="110" height="50" as="geometry" />
        </mxCell>
        <mxCell id="gfZZSl0cHbaxcPzD2Ns7-71" value="" style="edgeStyle=orthogonalEdgeStyle;html=1;verticalAlign=bottom;endArrow=open;endSize=8;strokeColor=#ff0000;rounded=0;labelBackgroundColor=default;fontFamily=Helvetica;fontSize=11;fontColor=default;shape=connector;elbow=horizontal;" edge="1" source="gfZZSl0cHbaxcPzD2Ns7-70" parent="1" target="gfZZSl0cHbaxcPzD2Ns7-73">
          <mxGeometry relative="1" as="geometry">
            <mxPoint x="480" y="620" as="targetPoint" />
            <Array as="points">
              <mxPoint x="770" y="600" />
              <mxPoint x="530" y="600" />
            </Array>
          </mxGeometry>
        </mxCell>
        <mxCell id="gfZZSl0cHbaxcPzD2Ns7-76" style="edgeStyle=elbowEdgeStyle;shape=connector;rounded=0;orthogonalLoop=1;jettySize=auto;elbow=horizontal;html=1;entryX=0;entryY=0.5;entryDx=0;entryDy=0;labelBackgroundColor=default;strokeColor=#FF0000;fontFamily=Helvetica;fontSize=11;fontColor=default;endArrow=open;endFill=1;endSize=8;exitX=0.75;exitY=0.5;exitDx=0;exitDy=0;exitPerimeter=0;" edge="1" parent="1" source="gfZZSl0cHbaxcPzD2Ns7-65" target="gfZZSl0cHbaxcPzD2Ns7-63">
          <mxGeometry relative="1" as="geometry" />
        </mxCell>
        <mxCell id="gfZZSl0cHbaxcPzD2Ns7-79" style="edgeStyle=elbowEdgeStyle;shape=connector;rounded=0;orthogonalLoop=1;jettySize=auto;elbow=horizontal;html=1;labelBackgroundColor=default;strokeColor=#FF0000;fontFamily=Helvetica;fontSize=11;fontColor=default;endArrow=open;endFill=1;endSize=8;" edge="1" parent="1" source="gfZZSl0cHbaxcPzD2Ns7-78" target="gfZZSl0cHbaxcPzD2Ns7-80">
          <mxGeometry relative="1" as="geometry">
            <mxPoint x="190" y="725" as="targetPoint" />
          </mxGeometry>
        </mxCell>
      </root>
    </mxGraphModel>
  </diagram>
</mxfile>
